<svg xmlns="http://www.w3.org/2000/svg" xmlns:xlink="http://www.w3.org/1999/xlink" viewBox="0 0 1000 1000" width="1000" height="1000" preserveAspectRatio="xMidYMid meet" style="width: 100%; height: 100%; transform: translate3d(0px, 0px, 0px); content-visibility: visible;"><defs><clipPath id="__lottie_element_1359"><rect width="1000" height="1000" x="0" y="0"></rect></clipPath><symbol id="__lottie_element_1360"><g><g style="display: block;" transform="matrix(1,0,0,1,163.27297973632812,164.55499267578125)" opacity="1"><g opacity="1" transform="matrix(1,0,0,1,335.0299987792969,334.6499938964844)"><path fill="rgb(70,16,16)" fill-opacity="1" d=" M334,-1.190000057220459 C334.7799987792969,183.27000427246094 185.88099670410156,333.4410095214844 1.4199999570846558,334.2309875488281 C-39.310001373291016,334.3999938964844 -78.35900115966797,327.2799987792969 -114.4990005493164,314.08099365234375 C-119.89900207519531,312.1099853515625 -125.22899627685547,310.010009765625 -130.49899291992188,307.7699890136719 C-249.62899780273438,257.1499938964844 -333.4110107421875,139.3000030517578 -334,1.649999976158142 C-334.3420104980469,-79.22599792480469 -460.8949890136719,-59.430999755859375 -563.5330200195312,-60.3650016784668 C-561.343994140625,-63.03300094604492 -556.89501953125,384.5679931640625 -549.260986328125,500.00299072265625 C-264.8949890136719,500.5679931640625 103.80500030517578,507.2690124511719 607.5009765625,503.53900146484375 C605.9140014648438,377.5039978027344 601.3410034179688,-546.0349731445312 609.1129760742188,-552.7150268554688 C550.3140258789062,-550.60498046875 118.09500122070312,-559.3140258789062 -11.111000061035156,-547.114013671875 C6.09499979019165,-435.3139953613281 9.694999694824219,-375.2049865722656 -1.4199999570846558,-333.7699890136719 C148.52099609375,-334.3999938964844 275.8009948730469,-236.13999938964844 318.6099853515625,-100.2699966430664 C323.510986328125,-84.7300033569336 327.3009948730469,-68.69999694824219 329.8909912109375,-52.27000045776367 C332.52099609375,-35.619998931884766 333.9200134277344,-18.559999465942383 334,-1.190000057220459z"></path></g></g></g></symbol><filter id="__lottie_element_1366" filterUnits="objectBoundingBox" x="0%" y="0%" width="100%" height="100%"><feComponentTransfer in="SourceGraphic"><feFuncA type="table" tableValues="1.0 0.0"></feFuncA></feComponentTransfer></filter><mask id="__lottie_element_1360_2" mask-type="alpha"><g filter="url(#__lottie_element_1366)"><rect width="1000" height="1000" x="0" y="0" fill="#ffffff" opacity="0"></rect><use xlink:href="#__lottie_element_1360"></use></g></mask></defs><g clip-path="url(#__lottie_element_1359)"><g style="display: block;" transform="matrix(1,0,0,1,163.27297973632812,164.55499267578125)" opacity="1"><g opacity="1" transform="matrix(1,0,0,1,335.0299987792969,334.6499938964844)"><path fill="rgb(70,16,16)" fill-opacity="1" d=" M334,-1.190000057220459 C334.7799987792969,183.27000427246094 185.88099670410156,333.44000244140625 1.4199999570846558,334.2300109863281 C-39.310001373291016,334.3999938964844 -78.35900115966797,327.2799987792969 -114.4990005493164,314.08099365234375 C-119.89900207519531,312.1099853515625 -125.2300033569336,310.010009765625 -130.5,307.7699890136719 C-249.6300048828125,257.1499938964844 -333.4110107421875,139.3000030517578 -334,1.649999976158142 C-334.3420104980469,-79.22599792480469 -305.9100036621094,-153.51100158691406 -258.3219909667969,-211.5030059814453 C-245.9770050048828,-226.5469970703125 -232.343994140625,-240.49400329589844 -217.58900451660156,-253.17599487304688 C-159.49600219726562,-303.1059875488281 -84.02300262451172,-333.4159851074219 -1.4199999570846558,-333.7699890136719 C148.52000427246094,-334.3999938964844 275.79998779296875,-236.13999938964844 318.6090087890625,-100.2699966430664 C323.510009765625,-84.7300033569336 327.29998779296875,-68.69999694824219 329.8900146484375,-52.27000045776367 C332.5199890136719,-35.619998931884766 333.9200134277344,-18.559999465942383 334,-1.190000057220459z"></path></g></g><g mask="url(#__lottie_element_1360_2)" style="display: block;"><g transform="matrix(1,0,0,1,304.416015625,307.88702392578125)" opacity="1"><g opacity="1" transform="matrix(1.1093699932098389,0,0,1.186900019645691,222.88092041015625,202.03765869140625)"><path fill="rgb(255,255,255)" fill-opacity="1" d=" M322.8810119628906,-254.531494140625 C322.8810119628906,-254.531494140625 322.8810119628906,254.531494140625 322.8810119628906,254.531494140625 C322.8810119628906,254.531494140625 -322.8810119628906,254.531494140625 -322.8810119628906,254.531494140625 C-322.8810119628906,254.531494140625 -322.8810119628906,-254.531494140625 -322.8810119628906,-254.531494140625 C-322.8810119628906,-254.531494140625 322.8810119628906,-254.531494140625 322.8810119628906,-254.531494140625z"></path><path stroke-linecap="butt" stroke-linejoin="miter" fill-opacity="0" stroke-miterlimit="4" stroke="rgb(69,175,106)" stroke-opacity="1" stroke-width="0" d=" M322.8810119628906,-254.531494140625 C322.8810119628906,-254.531494140625 322.8810119628906,254.531494140625 322.8810119628906,254.531494140625 C322.8810119628906,254.531494140625 -322.8810119628906,254.531494140625 -322.8810119628906,254.531494140625 C-322.8810119628906,254.531494140625 -322.8810119628906,-254.531494140625 -322.8810119628906,-254.531494140625 C-322.8810119628906,-254.531494140625 322.8810119628906,-254.531494140625 322.8810119628906,-254.531494140625z"></path></g><g opacity="1" transform="matrix(1.0325499773025513,0,0,1.0168800354003906,214.32501220703125,207.25262451171875)"><path fill="rgb(255,69,69)" fill-opacity="1" d=" M322.8810119628906,-254.531494140625 C322.8810119628906,-254.531494140625 322.8810119628906,254.531494140625 322.8810119628906,254.531494140625 C322.8810119628906,254.531494140625 -322.8810119628906,254.531494140625 -322.8810119628906,254.531494140625 C-322.8810119628906,254.531494140625 -322.8810119628906,-254.531494140625 -322.8810119628906,-254.531494140625 C-322.8810119628906,-254.531494140625 322.8810119628906,-254.531494140625 322.8810119628906,-254.531494140625z"></path><path stroke-linecap="butt" stroke-linejoin="miter" fill-opacity="0" stroke-miterlimit="4" stroke="rgb(69,175,106)" stroke-opacity="1" stroke-width="0" d=" M322.8810119628906,-254.531494140625 C322.8810119628906,-254.531494140625 322.8810119628906,254.531494140625 322.8810119628906,254.531494140625 C322.8810119628906,254.531494140625 -322.8810119628906,254.531494140625 -322.8810119628906,254.531494140625 C-322.8810119628906,254.531494140625 -322.8810119628906,-254.531494140625 -322.8810119628906,-254.531494140625 C-322.8810119628906,-254.531494140625 322.8810119628906,-254.531494140625 322.8810119628906,-254.531494140625z"></path></g><g opacity="1" transform="matrix(1,0,0,1,-7.13100004196167,-76.18599700927734)"><path fill="rgb(71,16,16)" fill-opacity="1" d=" M0,-7.814499855041504 C4.312822341918945,-7.814499855041504 7.814499855041504,-4.312822341918945 7.814499855041504,0 C7.814499855041504,4.312822341918945 4.312822341918945,7.814499855041504 0,7.814499855041504 C-4.312822341918945,7.814499855041504 -7.814499855041504,4.312822341918945 -7.814499855041504,0 C-7.814499855041504,-4.312822341918945 -4.312822341918945,-7.814499855041504 0,-7.814499855041504z"></path><path stroke-linecap="butt" stroke-linejoin="miter" fill-opacity="0" stroke-miterlimit="4" stroke="rgb(69,175,106)" stroke-opacity="1" stroke-width="0" d=" M0,-7.814499855041504 C4.312822341918945,-7.814499855041504 7.814499855041504,-4.312822341918945 7.814499855041504,0 C7.814499855041504,4.312822341918945 4.312822341918945,7.814499855041504 0,7.814499855041504 C-4.312822341918945,7.814499855041504 -7.814499855041504,4.312822341918945 -7.814499855041504,0 C-7.814499855041504,-4.312822341918945 -4.312822341918945,-7.814499855041504 0,-7.814499855041504z"></path></g><g opacity="1" transform="matrix(1,0,0,1,-91.18599700927734,-76.18599700927734)"><path fill="rgb(71,16,16)" fill-opacity="1" d=" M0,-7.814499855041504 C4.312822341918945,-7.814499855041504 7.814499855041504,-4.312822341918945 7.814499855041504,0 C7.814499855041504,4.312822341918945 4.312822341918945,7.814499855041504 0,7.814499855041504 C-4.312822341918945,7.814499855041504 -7.814499855041504,4.312822341918945 -7.814499855041504,0 C-7.814499855041504,-4.312822341918945 -4.312822341918945,-7.814499855041504 0,-7.814499855041504z"></path><path stroke-linecap="butt" stroke-linejoin="miter" fill-opacity="0" stroke-miterlimit="4" stroke="rgb(69,175,106)" stroke-opacity="1" stroke-width="0" d=" M0,-7.814499855041504 C4.312822341918945,-7.814499855041504 7.814499855041504,-4.312822341918945 7.814499855041504,0 C7.814499855041504,4.312822341918945 4.312822341918945,7.814499855041504 0,7.814499855041504 C-4.312822341918945,7.814499855041504 -7.814499855041504,4.312822341918945 -7.814499855041504,0 C-7.814499855041504,-4.312822341918945 -4.312822341918945,-7.814499855041504 0,-7.814499855041504z"></path></g><g opacity="1" transform="matrix(1,0,0,1,-49.22100067138672,-75.61499786376953)"><path fill="rgb(71,16,16)" fill-opacity="1" d=" M0,-7.814499855041504 C4.312822341918945,-7.814499855041504 7.814499855041504,-4.312822341918945 7.814499855041504,0 C7.814499855041504,4.312822341918945 4.312822341918945,7.814499855041504 0,7.814499855041504 C-4.312822341918945,7.814499855041504 -7.814499855041504,4.312822341918945 -7.814499855041504,0 C-7.814499855041504,-4.312822341918945 -4.312822341918945,-7.814499855041504 0,-7.814499855041504z"></path><path stroke-linecap="butt" stroke-linejoin="miter" fill-opacity="0" stroke-miterlimit="4" stroke="rgb(69,175,106)" stroke-opacity="1" stroke-width="0" d=" M0,-7.814499855041504 C4.312822341918945,-7.814499855041504 7.814499855041504,-4.312822341918945 7.814499855041504,0 C7.814499855041504,4.312822341918945 4.312822341918945,7.814499855041504 0,7.814499855041504 C-4.312822341918945,7.814499855041504 -7.814499855041504,4.312822341918945 -7.814499855041504,0 C-7.814499855041504,-4.312822341918945 -4.312822341918945,-7.814499855041504 0,-7.814499855041504z"></path></g></g></g></g></svg>