<svg xmlns="http://www.w3.org/2000/svg" xmlns:xlink="http://www.w3.org/1999/xlink" viewBox="0 0 1000 1000" width="1000" height="1000" preserveAspectRatio="xMidYMid meet" style="width: 100%; height: 100%; transform: translate3d(0px, 0px, 0px); content-visibility: visible;"><defs><clipPath id="__lottie_element_1401"><rect width="1000" height="1000" x="0" y="0"></rect></clipPath></defs><g clip-path="url(#__lottie_element_1401)"><g style="display: block;" transform="matrix(1.222684621810913,-0.2598835825920105,0.2598835825920105,1.222684621810913,160.65896606445312,531.3660278320312)" opacity="1"><g opacity="1" transform="matrix(1,0,0,1,137.88099670410156,135.56100463867188)"><path fill="rgb(68,174,105)" fill-opacity="1" d=" M137.63099670410156,-135.31100463867188 C137.63099670410156,-135.31100463867188 -137.63099670410156,-107.00399780273438 -137.63099670410156,-107.00399780273438 C-137.63099670410156,-107.00399780273438 79.89099884033203,135.31100463867188 79.89099884033203,135.31100463867188 C79.89099884033203,135.31100463867188 137.63099670410156,-135.31100463867188 137.63099670410156,-135.31100463867188z"></path></g></g><g style="display: block;" transform="matrix(0.000004132845333515434,1,-1,0.000004132845333515434,501.5626220703125,171.0986328125)" opacity="1"><g opacity="1" transform="matrix(1,0,0,1,167.75,167.75)"><path fill="rgb(255,126,17)" fill-opacity="1" d=" M0,-167.5 C-92.51000213623047,-167.5 -167.5,-92.51000213623047 -167.5,0 C-167.5,92.51000213623047 -92.51000213623047,167.5 0,167.5 C92.51000213623047,167.5 167.5,92.51000213623047 167.5,0 C167.5,-92.51000213623047 92.51000213623047,-167.5 0,-167.5z M0,83.5 C-46.119998931884766,83.5 -83.5,46.119998931884766 -83.5,0 C-83.5,-46.119998931884766 -46.119998931884766,-83.5 0,-83.5 C46.119998931884766,-83.5 83.5,-46.119998931884766 83.5,0 C83.5,46.119998931884766 46.119998931884766,83.5 0,83.5z"></path></g></g><g style="display: block;" transform="matrix(0.000004132845333515434,1,-1,0.000004132845333515434,832.3169555664062,167.87063598632812)" opacity="1"><g opacity="1" transform="matrix(1,0,0,1,166.75,167.25)"><path fill="rgb(255,69,69)" fill-opacity="1" d=" M-166.5,167 C-166.5,167 166.5,167 166.5,167 C166.5,167 166.5,-167 166.5,-167 C166.5,-167 -166.5,-167 -166.5,-167 C-166.5,-167 -166.5,167 -166.5,167z"></path></g></g><g style="display: block;" transform="matrix(0.000004132845333515434,1,-1,0.000004132845333515434,833.8150024414062,501.8569641113281)" opacity="1"><g opacity="1" transform="matrix(1,0,0,1,167.75,167.75)"><path fill="rgb(117,7,57)" fill-opacity="1" d=" M167.5,0 C167.5,92.50800323486328 92.50800323486328,167.5 0,167.5 C-92.50800323486328,167.5 -167.5,92.50800323486328 -167.5,0 C-167.5,-92.50700378417969 -92.50800323486328,-167.5 0,-167.5 C92.50800323486328,-167.5 167.5,-92.50700378417969 167.5,0z"></path></g></g><g style="display: block;" transform="matrix(1,0,0,1,500,500)" opacity="1"></g></g></svg>