<svg xmlns="http://www.w3.org/2000/svg" xmlns:xlink="http://www.w3.org/1999/xlink" viewBox="0 0 1000 1000" width="1000" height="1000" preserveAspectRatio="xMidYMid meet" style="width: 100%; height: 100%; transform: translate3d(0px, 0px, 0px); content-visibility: visible;"><defs><clipPath id="__lottie_element_1070"><rect width="1000" height="1000" x="0" y="0"></rect></clipPath><symbol id="__lottie_element_1071"><g><g style="display: block;" transform="matrix(1,0,0,1,186.60400390625,237.1649932861328)" opacity="1"><g opacity="1" transform="matrix(1,0,0,1,350.5199890136719,191.55999755859375)"><path fill="rgb(117,7,57)" fill-opacity="1" d=" M-58.31999969482422,67.20999908447266 C-58.31999969482422,82.33999633789062 -56.310001373291016,97 -52.540000915527344,110.93000030517578 C-60.13999938964844,91.83999633789062 -64.31999969482422,71.01000213623047 -64.31999969482422,49.209999084472656 C-64.31999969482422,-26.510000228881836 -11.420000076293945,-91.97000122070312 57.65999984741211,-112.43000030517578 C61.040000915527344,-106.94000244140625 63.599998474121094,-100.2300033569336 66.31999969482422,-94.33999633789062 C-4.380000114440918,-74.9000015258789 -58.31999969482422,-9.65999984741211 -58.31999969482422,67.20999908447266z"></path></g></g></g></symbol><filter id="__lottie_element_1077" filterUnits="objectBoundingBox" x="0%" y="0%" width="100%" height="100%"><feComponentTransfer in="SourceGraphic"><feFuncA type="table" tableValues="1.0 0.0"></feFuncA></feComponentTransfer></filter><mask id="__lottie_element_1071_2" mask-type="alpha"><g filter="url(#__lottie_element_1077)"><rect width="1000" height="1000" x="0" y="0" fill="#ffffff" opacity="0"></rect><use xlink:href="#__lottie_element_1071"></use></g></mask></defs><g clip-path="url(#__lottie_element_1070)"><g style="display: block;" transform="matrix(1,0,0,1,176.05499267578125,695.1849975585938)" opacity="1"><g opacity="1" transform="matrix(1,0,0,1,324.25,27.75)"><path fill="rgb(255,69,69)" fill-opacity="1" d=" M257.22900390625,-27.25 C256.5589904785156,-27.34000015258789 255.87899780273438,-27.43000030517578 255.1999969482422,-27.5 C255.1999969482422,-27.5 -0.0010000000474974513,-27.5 -0.0010000000474974513,-27.5 C-0.0010000000474974513,-27.5 -324,-27.5 -324,-27.5 C-324,-27.5 -324,-25.670000076293945 -324,-25.670000076293945 C-313.29998779296875,2.359999895095825 -287.9010009765625,23.1299991607666 -257.2309875488281,27.25 C-256.5610046386719,27.34000015258789 -255.88099670410156,27.430999755859375 -255.2010040283203,27.5 C-255.2010040283203,27.5 -0.0010000000474974513,27.5 -0.0010000000474974513,27.5 C-0.0010000000474974513,27.5 324,27.5 324,27.5 C324,27.5 324,25.670000076293945 324,25.670000076293945 C313.29901123046875,-2.3589999675750732 287.89898681640625,-23.1299991607666 257.22900390625,-27.25z"></path></g></g><g style="display: none;"><g><path></path></g></g><g mask="url(#__lottie_element_1071_2)" style="display: block;"><g transform="matrix(1,0,0,1,186.60400390625,237.1649932861328)" opacity="1"><g opacity="1" transform="matrix(1,0,0,1,324.8500061035156,199.13999938964844)"><path fill="rgb(255,69,69)" fill-opacity="1" d=" M302.10101318359375,59.88999938964844 C302.10101318359375,116.83000183105469 273.6109924316406,167.11000061035156 230.1009979248047,197.25999450683594 C230.1009979248047,197.25999450683594 228.9510040283203,197.27000427246094 228.9510040283203,197.27000427246094 C228.9510040283203,197.27000427246094 42.5099983215332,198.88999938964844 42.5099983215332,198.88999938964844 C42.5099983215332,198.88999938964844 42.15999984741211,198.88999938964844 42.15999984741211,198.88999938964844 C42.15999984741211,198.88999938964844 23.56999969482422,198.86000061035156 23.56999969482422,198.86000061035156 C23.56999969482422,198.86000061035156 -226.89999389648438,198.4499969482422 -226.89999389648438,198.4499969482422 C-268.8699951171875,194.2100067138672 -301.7200012207031,158.8699951171875 -301.8999938964844,115.73999786376953 C-302.10101318359375,69.62999725341797 -264.8699951171875,32.08000183105469 -218.75999450683594,31.889999389648438 C-217.91000366210938,31.8799991607666 -217.07000732421875,31.90999984741211 -216.2310028076172,31.940000534057617 C-216.11000061035156,31.940000534057617 -215.98899841308594,31.950000762939453 -215.86900329589844,31.950000762939453 C-223.85000610351562,12.5600004196167 -228.3000030517578,-8.649999618530273 -228.39999389648438,-30.899999618530273 C-228.6009979248047,-78.56999969482422 -208.81100463867188,-121.66999816894531 -176.89999389648438,-152.22999572753906 C-175.92100524902344,-153.16000366210938 -174.9409942626953,-154.0800018310547 -173.9409942626953,-154.99000549316406 C-146.8699951171875,-179.7100067138672 -111.61900329589844,-195.6300048828125 -72.6989974975586,-198.24000549316406 C-69.1989974975586,-198.47000122070312 -65.6709976196289,-198.58999633789062 -62.11000061035156,-198.61000061035156 C3.890000104904175,-198.88999938964844 61.119998931884766,-160.83999633789062 88.47000122070312,-105.37000274658203 C89.0999984741211,-104.08999633789062 89.70899963378906,-102.80999755859375 90.30999755859375,-101.51000213623047 C90.37999725341797,-101.37000274658203 90.44000244140625,-101.22000122070312 90.51000213623047,-101.08000183105469 C101.22000122070312,-104.05000305175781 112.37999725341797,-105.97000122070312 123.83999633789062,-106.7300033569336 C127.55999755859375,-106.98999786376953 131.32000732421875,-107.11000061035156 135.10000610351562,-107.11000061035156 C153.11000061035156,-107.11000061035156 170.45899963378906,-104.26000213623047 186.72000122070312,-98.9800033569336 C187.24899291992188,-98.80999755859375 187.78900146484375,-98.62999725341797 188.32899475097656,-98.44999694824219 C188.44000244140625,-98.41000366210938 188.5500030517578,-98.37999725341797 188.66000366210938,-98.33999633789062 C254.6199951171875,-76.01000213623047 302.10101318359375,-13.609999656677246 302.10101318359375,59.88999938964844z"></path></g></g></g></g></svg>