<svg xmlns="http://www.w3.org/2000/svg" xmlns:xlink="http://www.w3.org/1999/xlink" viewBox="0 0 1000 1000" width="1000" height="1000" preserveAspectRatio="xMidYMid meet" style="width: 100%; height: 100%; transform: translate3d(0px, 0px, 0px); content-visibility: visible;"><defs><clipPath id="__lottie_element_1371"><rect width="1000" height="1000" x="0" y="0"></rect></clipPath></defs><g clip-path="url(#__lottie_element_1371)"><g style="display: block;" transform="matrix(1,0,0,1,182.05401611328125,197.09600830078125)" opacity="1"><g opacity="1" transform="matrix(1,0,0,1,334.25,334.25)"><path fill="rgb(248,200,199)" fill-opacity="1" d=" M-334,0 C-334,184.46299743652344 -184.46299743652344,334 0,334 C184.46299743652344,334 334,184.46299743652344 334,0 C334,-184.46299743652344 184.46299743652344,-334 0,-334 C-184.46299743652344,-334 -334,-184.46299743652344 -334,0z"></path></g></g><g style="display: block;" transform="matrix(1,0,0,1,516.0549926757812,531.0960083007812)" opacity="1"><g opacity="1" transform="matrix(1,0,0,1,167.25,167.25)"><path fill="rgb(62,16,37)" fill-opacity="1" d=" M-167,-167 C-167,-167 -167,167 -167,167 C-78.4520034790039,167 6.560999870300293,131.78599548339844 69.1729965209961,69.17400360107422 C131.78599548339844,6.560999870300293 167,-78.4520034790039 167,-167 C167,-167 -167,-167 -167,-167z"></path></g></g><g style="display: block;" transform="matrix(1,0,0,1,74.05398559570312,501.09600830078125)" opacity="1"><g opacity="1" transform="matrix(1,0,0,1,208.25,208.25)"><path fill="rgb(255,69,69)" fill-opacity="1" d=" M208,-208 C208,-208 208,208 208,208 C97.71199798583984,208 -8.170999526977539,164.14199829101562 -86.15599822998047,86.15599822998047 C-164.14199829101562,8.170999526977539 -208,-97.71299743652344 -208,-208 C-208,-208 208,-208 208,-208z"></path></g></g><g style="display: block;" transform="matrix(1,0,0,1,510.05499267578125,84.09500122070312)" opacity="1"><g opacity="1" transform="matrix(1,0,0,1,208.25,208.25)"><path fill="rgb(117,7,57)" fill-opacity="1" d=" M-208,208 C-208,208 -208,-208 -208,-208 C-97.71299743652344,-208 8.170999526977539,-164.14199829101562 86.15599822998047,-86.15599822998047 C164.14199829101562,-8.170999526977539 208,97.71199798583984 208,208 C208,208 -208,208 -208,208z"></path></g></g></g></svg>