<svg xmlns="http://www.w3.org/2000/svg" fill="none" viewBox="0 0 1180 1180" height="1180" width="1180">
<rect fill="#75083A" rx="170" height="1180" width="1180"></rect>
<g clip-path="url(#clip0_1_31)">
<path fill="#FCF0D5" d="M898.432 241.493C874.862 223.273 845.026 215.154 815.477 218.92C785.927 222.686 759.08 238.028 740.832 261.578C726.059 280.587 717.821 303.86 717.344 327.932C716.986 340.485 722.723 364.875 722.723 364.875C722.723 364.875 725.95 376.711 725.592 383.346C724.839 393.686 720.379 403.406 713.034 410.721C705.688 418.035 695.95 422.451 685.609 423.158C681.614 423.104 677.64 422.562 673.776 421.544C668.942 420.43 664.206 418.931 659.612 417.061C591.818 391.038 516.9 390.433 448.695 415.357C380.491 440.282 323.609 489.053 288.556 552.661C253.503 616.269 242.649 690.416 257.997 761.405C273.345 832.394 313.86 895.43 372.056 938.868C430.253 982.305 502.2 1003.21 574.606 997.72C647.013 992.231 714.987 960.717 765.973 909.002C816.958 857.286 847.51 788.863 851.985 716.37C856.46 643.878 834.555 572.215 790.317 514.619C787.808 511.461 785.474 508.168 783.325 504.755C780.036 498.263 778.433 491.048 778.663 483.773C779.38 461.356 798.027 444.14 820.439 442.706L843.926 440.374C872.284 437.523 898.375 423.605 916.54 401.638C917.253 400.846 917.911 400.007 918.512 399.128V399.128C927.555 387.463 934.209 374.13 938.094 359.891C941.98 345.652 943.019 330.786 941.154 316.145C939.289 301.503 934.556 287.374 927.225 274.564C919.894 261.754 910.109 250.516 898.432 241.493V241.493ZM551.856 864.141C519.011 864.176 486.894 854.467 459.568 836.241C432.241 818.016 410.933 792.093 398.34 761.752C385.746 731.411 382.432 698.015 388.818 665.79C395.204 633.565 411.003 603.959 434.215 580.717C457.427 557.474 487.009 541.64 519.22 535.218C551.431 528.796 584.823 532.074 615.171 544.638C645.518 557.202 671.459 578.486 689.71 605.799C707.961 633.112 717.703 665.226 717.703 698.078C717.656 742.075 700.173 784.259 669.086 815.386C637.999 846.514 595.843 864.046 551.856 864.141Z"></path>
</g>
<defs>
<clipPath id="clip0_1_31">
<rect transform="translate(251 218)" fill="white" height="781" width="691"></rect>
</clipPath>
</defs>
</svg>
