<svg xmlns="http://www.w3.org/2000/svg" xmlns:xlink="http://www.w3.org/1999/xlink" viewBox="0 0 1000 1000" width="1000" height="1000" preserveAspectRatio="xMidYMid meet" style="width: 100%; height: 100%; transform: translate3d(0px, 0px, 0px); content-visibility: visible;"><defs><clipPath id="__lottie_element_1351"><rect width="1000" height="1000" x="0" y="0"></rect></clipPath></defs><g clip-path="url(#__lottie_element_1351)"><g style="display: block;" transform="matrix(0.25,0,0,0.25,412.2072448730469,710.4425048828125)" opacity="1"><g opacity="1" transform="matrix(1,0,0,1,353.8030090332031,250.25)"><path fill="rgb(255,69,69)" fill-opacity="1" d=" M0.0010000000474974513,250 C0.0010000000474974513,250 -353.5530090332031,-103.55400085449219 -353.5530090332031,-103.55400085449219 C-259.82000732421875,-197.28599548339844 -132.5570068359375,-250 0.0010000000474974513,-250 C132.5590057373047,-250 259.8210144042969,-197.28599548339844 353.5530090332031,-103.55400085449219 C353.5530090332031,-103.55400085449219 0.0010000000474974513,250 0.0010000000474974513,250z"></path></g></g><g style="display: block;" transform="matrix(3.299999952316284,0,0,3.299999952316284,120.902099609375,160.6800079345703)" opacity="1"><g opacity="1" transform="matrix(1,0,0,1,118.44300079345703,91.68299865722656)"><path fill="rgb(70,16,16)" fill-opacity="1" d=" M-0.10599999874830246,-91.43399810791016 C-0.10599999874830246,-91.43399810791016 118.19300079345703,26.44099998474121 118.19300079345703,26.44099998474121 C118.12300109863281,26.511999130249023 118.0510025024414,26.582000732421875 117.98100280761719,26.652000427246094 C53.20000076293945,91.43299865722656 -53.41299819946289,91.43299865722656 -118.19300079345703,26.652000427246094 C-118.19300079345703,26.652000427246094 -0.10599999874830246,-91.43399810791016 -0.10599999874830246,-91.43399810791016z"></path></g></g></g></svg>