<svg xmlns="http://www.w3.org/2000/svg" xmlns:xlink="http://www.w3.org/1999/xlink" viewBox="0 0 1000 1000" width="1000"
    height="1000" preserveAspectRatio="xMidYMid meet"
    style="width: 100%; height: 100%; transform: translate3d(0px, 0px, 0px); content-visibility: visible;">
    <defs>
        <clipPath id="__lottie_element_1017">
            <rect width="1000" height="1000" x="0" y="0"></rect>
        </clipPath>
        <symbol id="__lottie_element_1024">
            <g>
                <g style="display: block;"
                    transform="matrix(0.882947564125061,-0.4694715738296509,0.4694715738296509,0.882947564125061,576,500)"
                    opacity="1">
                    <g opacity="1" transform="matrix(1,0,0,1,0,0)">
                        <path fill="rgb(224,16,16)" fill-opacity="1" d="M0 0"></path>
                        <path stroke-linecap="butt" stroke-linejoin="miter" fill-opacity="0" stroke-miterlimit="4"
                            stroke="rgb(69,175,106)" stroke-opacity="1" stroke-width="77" d="M0 0"></path>
                    </g>
                </g>
            </g>
        </symbol>
        <clipPath id="__lottie_element_1028">
            <path d="M0,0 L1000,0 L1000,1000 L0,1000z"></path>
        </clipPath>
        <filter id="__lottie_element_1040" filterUnits="objectBoundingBox" x="0%" y="0%" width="100%" height="100%">
            <feComponentTransfer in="SourceGraphic">
                <feFuncA type="table" tableValues="1.0 0.0"></feFuncA>
            </feComponentTransfer>
        </filter>
        <mask id="__lottie_element_1024_2" mask-type="alpha">
            <g filter="url(#__lottie_element_1040)">
                <rect width="1000" height="1000" x="0" y="0" fill="#ffffff" opacity="0"></rect>
                <use xlink:href="#__lottie_element_1024"></use>
            </g>
        </mask>
    </defs>
    <g clip-path="url(#__lottie_element_1017)">
        <g mask="url(#__lottie_element_1024_2)" style="display: block;">
            <g clip-path="url(#__lottie_element_1028)" transform="matrix(1,0,0,1,0,0)" opacity="1">
                <g style="display: block;" transform="matrix(1,0,0,1,70.948974609375,229.68499755859375)" opacity="1">
                    <g opacity="1" transform="matrix(1,0,0,1,429.3550109863281,144.0709991455078)">
                        <path fill="rgb(37,56,43)" fill-opacity="1"
                            d=" M429.1050109863281,99.75900268554688 C429.1050109863281,99.75900268554688 355.57598876953125,143.82000732421875 355.57598876953125,143.82000732421875 C283.0450134277344,21.888999938964844 149.95599365234375,-59.81999969482422 -2.2149999141693115,-59.81999969482422 C-153.375,-59.81999969482422 -285.69500732421875,20.799999237060547 -358.5450134277344,141.3800048828125 C-358.5450134277344,141.3800048828125 -429.1050109863281,99.04000091552734 -429.1050109863281,99.04000091552734 C-341.68499755859375,-46.470001220703125 -182.31500244140625,-143.82000732421875 -0.2150000035762787,-143.82000732421875 C182.18499755859375,-143.82000732421875 341.7860107421875,-46.14099884033203 429.1050109863281,99.75900268554688z">
                        </path>
                    </g>
                </g>
                <g style="display: block;" transform="matrix(1,0,0,1,213.30899047851562,395.68499755859375)"
                    opacity="1">
                    <g opacity="1" transform="matrix(1,0,0,1,286.9649963378906,103.7300033569336)">
                        <path fill="rgb(68,174,105)" fill-opacity="1"
                            d=" M286.7149963378906,59.43000030517578 C286.7149963378906,59.43000030517578 213.18600463867188,103.4800033569336 213.18600463867188,103.4800033569336 C169.6649932861328,29.8799991607666 89.50499725341797,-19.479999542236328 -2.184999942779541,-19.479999542236328 C-92.90499877929688,-19.479999542236328 -172.3350067138672,28.84000015258789 -216.15499877929688,101.13999938964844 C-216.15499877929688,101.13999938964844 -286.7149963378906,58.79999923706055 -286.7149963378906,58.79999923706055 C-228.3249969482422,-38.43000030517578 -121.84500122070312,-103.4800033569336 -0.1850000023841858,-103.4800033569336 C121.74500274658203,-103.4800033569336 228.4149932861328,-38.13999938964844 286.7149963378906,59.43000030517578z">
                        </path>
                    </g>
                </g>
                <g style="display: block;" transform="matrix(1,0,0,1,356.5299987792969,562.6849975585938)" opacity="1">
                    <g opacity="1" transform="matrix(1,0,0,1,143.72000122070312,62.915000915527344)">
                        <path fill="rgb(185,226,199)" fill-opacity="1"
                            d=" M143.47000122070312,19.084999084472656 C143.47000122070312,19.084999084472656 70.72000122070312,62.665000915527344 70.72000122070312,62.665000915527344 C56.29999923706055,37.665000915527344 29.290000915527344,20.834999084472656 -1.659999966621399,20.834999084472656 C-31.850000381469727,20.834999084472656 -58.30099868774414,36.85599899291992 -72.95999908447266,60.85599899291992 C-72.95999908447266,60.85599899291992 -143.47000122070312,18.55500030517578 -143.47000122070312,18.55500030517578 C-114.29000091552734,-30.104000091552734 -61.029998779296875,-62.665000915527344 -0.1599999964237213,-62.665000915527344 C60.93000030517578,-62.665000915527344 114.36000061035156,-29.864999771118164 143.47000122070312,19.084999084472656z">
                        </path>
                    </g>
                </g>
            </g>
        </g>
        <g style="display: block;" transform="matrix(1,0,0,1,458.8399963378906,688.6849975585938)" opacity="1">
            <g opacity="1" transform="matrix(1,0,0,1,41.25,41.25)">
                <path fill="rgb(37,56,43)" fill-opacity="1"
                    d=" M41,0 C41,22.643999099731445 22.643999099731445,41 0,41 C-22.643999099731445,41 -41,22.643999099731445 -41,0 C-41,-22.643999099731445 -22.643999099731445,-41 0,-41 C22.643999099731445,-41 41,-22.643999099731445 41,0z">
                </path>
            </g>
        </g>
        <g style="display: block;"
            transform="matrix(0.882947564125061,-0.4694715738296509,0.4694715738296509,0.882947564125061,542,500)"
            opacity="1">
            <g opacity="1" transform="matrix(1,0,0,1,0,0)">
                <path fill="rgb(224,16,16)" fill-opacity="1" d="M0 0"></path>
                <path stroke-linecap="butt" stroke-linejoin="miter" fill-opacity="0" stroke-miterlimit="4"
                    stroke="rgb(69,175,106)" stroke-opacity="1" stroke-width="77" d="M0 0"></path>
            </g>
        </g>
    </g>
</svg>