<svg xmlns="http://www.w3.org/2000/svg" xmlns:xlink="http://www.w3.org/1999/xlink" viewBox="0 0 1000 1000" width="1000" height="1000" preserveAspectRatio="xMidYMid meet" style="width: 100%; height: 100%; transform: translate3d(0px, 0px, 0px); content-visibility: visible;"><defs><clipPath id="__lottie_element_1334"><rect width="1000" height="1000" x="0" y="0"></rect></clipPath></defs><g clip-path="url(#__lottie_element_1334)"><g style="display: block;" transform="matrix(1,0,0,1,500,500)" opacity="1"><g opacity="1" transform="matrix(1,0,0,1,26,0)"><path fill="rgb(117,8,58)" fill-opacity="1" d=" M-316.37701416015625,-171.96299743652344 C-316.37701416015625,-70.24700164794922 -316.37701416015625,47.915000915527344 -316.37701416015625,149.63099670410156"></path><path stroke-linecap="round" stroke-linejoin="miter" fill-opacity="0" stroke-miterlimit="4" stroke="rgb(117,8,58)" stroke-opacity="1" stroke-width="86" d=" M-316.37701416015625,-171.96299743652344 C-316.37701416015625,-70.24700164794922 -316.37701416015625,47.915000915527344 -316.37701416015625,149.63099670410156"></path></g></g><g style="display: block;" transform="matrix(1,0,0,1,644.4760131835938,500)" opacity="1"><g opacity="1" transform="matrix(1,0,0,1,26,0)"><path fill="rgb(38,56,42)" fill-opacity="1" d=" M-316.37701416015625,-171.96299743652344 C-316.37701416015625,-70.24700164794922 -316.37701416015625,47.915000915527344 -316.37701416015625,149.63099670410156"></path><path stroke-linecap="round" stroke-linejoin="miter" fill-opacity="0" stroke-miterlimit="4" stroke="rgb(255,127,17)" stroke-opacity="1" stroke-width="86" d=" M-316.37701416015625,-171.96299743652344 C-316.37701416015625,-70.24700164794922 -316.37701416015625,47.915000915527344 -316.37701416015625,149.63099670410156"></path></g></g><g style="display: block;" transform="matrix(1,0,0,1,790.8780517578125,500)" opacity="1"><g opacity="1" transform="matrix(1,0,0,1,26,0)"><path fill="rgb(68,175,105)" fill-opacity="1" d=" M-316.37701416015625,-171.96299743652344 C-316.37701416015625,-70.24700164794922 -316.37701416015625,47.915000915527344 -316.37701416015625,149.63099670410156"></path><path stroke-linecap="round" stroke-linejoin="miter" fill-opacity="0" stroke-miterlimit="4" stroke="rgb(69,175,106)" stroke-opacity="1" stroke-width="86" d=" M-316.37701416015625,-171.96299743652344 C-316.37701416015625,-70.24700164794922 -316.37701416015625,47.915000915527344 -316.37701416015625,149.63099670410156"></path></g></g><g style="display: block;" transform="matrix(1,0,0,1,937.280029296875,500)" opacity="1"><g opacity="1" transform="matrix(1,0,0,1,26,0)"><path fill="rgb(38,56,42)" fill-opacity="1" d=" M-316.37701416015625,-171.96299743652344 C-316.37701416015625,-70.24700164794922 -316.37701416015625,47.915000915527344 -316.37701416015625,149.63099670410156"></path><path stroke-linecap="round" stroke-linejoin="miter" fill-opacity="0" stroke-miterlimit="4" stroke="rgb(255,69,69)" stroke-opacity="1" stroke-width="86" d=" M-316.37701416015625,-171.96299743652344 C-316.37701416015625,-70.24700164794922 -316.37701416015625,47.915000915527344 -316.37701416015625,149.63099670410156"></path></g></g><g style="display: block;" transform="matrix(1,0,0,1,1082.280029296875,500)" opacity="1"><g opacity="1" transform="matrix(1,0,0,1,26,0)"><path fill="rgb(38,56,42)" fill-opacity="1" d=" M-316.37701416015625,-171.96299743652344 C-316.37701416015625,-70.24700164794922 -316.37701416015625,47.915000915527344 -316.37701416015625,149.63099670410156"></path><path stroke-linecap="round" stroke-linejoin="miter" fill-opacity="0" stroke-miterlimit="4" stroke="rgb(255,127,17)" stroke-opacity="1" stroke-width="86" d=" M-316.37701416015625,-171.96299743652344 C-316.37701416015625,-70.24700164794922 -316.37701416015625,47.915000915527344 -316.37701416015625,149.63099670410156"></path></g></g></g></svg>