<svg xmlns="http://www.w3.org/2000/svg" xmlns:xlink="http://www.w3.org/1999/xlink" viewBox="0 0 1000 1000" width="1000" height="1000" preserveAspectRatio="xMidYMid meet" style="width: 100%; height: 100%; transform: translate3d(0px, 0px, 0px); content-visibility: visible;"><defs><clipPath id="__lottie_element_1317"><rect width="1000" height="1000" x="0" y="0"></rect></clipPath></defs><g clip-path="url(#__lottie_element_1317)"><g style="display: block;" transform="matrix(1,0.000002544350991229294,-0.000002544350991229294,1,166.05526733398438,170.18414306640625)" opacity="1"><g opacity="1" transform="matrix(1,0,0,1,334.25,334.25)"><path fill="rgb(248,200,199)" fill-opacity="1" d=" M-334,0 C-334,-184.46299743652344 -184.46299743652344,-334 0,-334 C184.46299743652344,-334 334,-184.46299743652344 334,0 C334,184.46299743652344 184.46299743652344,334 0,334 C-184.46299743652344,334 -334,184.46299743652344 -334,0z"></path></g></g><g style="display: block;" transform="matrix(1,0.000002544350991229294,-0.000002544350991229294,1,611.2383422851562,539.779296875)" opacity="1"><g opacity="1" transform="matrix(1,0,0,1,41.34600067138672,41.25)"><path fill="rgb(68,174,105)" fill-opacity="1" d=" M0.004999999888241291,-13 C7.140999794006348,-13 12.968999862670898,-7.192999839782715 13,-0.0560000017285347 C13.020000457763672,4.629000186920166 10.64799976348877,7.724999904632568 9.232000350952148,9.152999877929688 C7.815999984741211,10.581000328063965 4.739999771118164,12.979000091552734 0.05700000002980232,13 C0.05700000002980232,13 -0.004000000189989805,13 -0.004000000189989805,13 C-7.139999866485596,13 -12.970000267028809,7.192999839782715 -13,0.054999999701976776 C-13.020000457763672,-4.630000114440918 -10.647000312805176,-7.72599983215332 -9.230999946594238,-9.152999877929688 C-7.815000057220459,-10.581999778747559 -4.741000175476074,-12.979999542236328 -0.05700000002980232,-13 C-0.05700000002980232,-13 0.004999999888241291,-13 0.004999999888241291,-13z M0.004999999888241291,-41 C0.004999999888241291,-41 -0.17399999499320984,-41 -0.17399999499320984,-41 C-22.816999435424805,-40.90299987792969 -41.09700012207031,-22.4689998626709 -41,0.17399999499320984 C-40.90399932861328,22.757999420166016 -22.56599998474121,41 -0.004000000189989805,41 C0.0560000017285347,41 0.11500000208616257,41 0.17399999499320984,41 C22.816999435424805,40.90299987792969 41.09700012207031,22.4689998626709 41,-0.17499999701976776 C40.90399932861328,-22.759000778198242 22.566999435424805,-41 0.004999999888241291,-41z"></path></g></g><g style="display: block;" transform="matrix(1,0.000002544350991229294,-0.000002544350991229294,1,461.1393737792969,533.1419067382812)" opacity="1"><g opacity="1" transform="matrix(1,0,0,1,83.94599914550781,83.94599914550781)"><path fill="rgb(255,69,69)" fill-opacity="1" d=" M83.5,-0.35600000619888306 C83.69599914550781,45.7599983215332 46.47100067138672,83.30400085449219 0.35499998927116394,83.5 C-45.7599983215332,83.69599914550781 -83.302001953125,46.47200012207031 -83.4990005493164,0.35600000619888306 C-83.69499969482422,-45.75899887084961 -46.470001220703125,-83.3030014038086 -0.35499998927116394,-83.5 C45.7599983215332,-83.69599914550781 83.30400085449219,-46.47100067138672 83.5,-0.35600000619888306z"></path></g></g><g style="display: block;" transform="matrix(1,0.000002544350991229294,-0.000002544350991229294,1,369.1393737792969,521.483642578125)" opacity="1"><g opacity="1" transform="matrix(1,0,0,1,83.94599914550781,83.94599914550781)"><path fill="rgb(255,126,17)" fill-opacity="1" d=" M83.5,-0.35600000619888306 C83.69599914550781,45.75899887084961 46.47100067138672,83.302001953125 0.35499998927116394,83.49800109863281 C-45.7599983215332,83.69599914550781 -83.302001953125,46.470001220703125 -83.4990005493164,0.35499998927116394 C-83.69499969482422,-45.7599983215332 -46.470001220703125,-83.3030014038086 -0.35499998927116394,-83.5 C45.7599983215332,-83.69599914550781 83.30400085449219,-46.47100067138672 83.5,-0.35600000619888306z"></path></g></g><g style="display: block;" transform="matrix(1,0.000002544350991229294,-0.000002544350991229294,1,166.05441284179688,504.18414306640625)" opacity="1"><g opacity="1" transform="matrix(1,0,0,1,334.7640075683594,167.58999633789062)"><path fill="rgb(70,16,16)" fill-opacity="1" d=" M0,-167 C0,-167 334,-167 334,-167 C334,16.22800064086914 183.2270050048828,167 0,167 C-183.2270050048828,167 -334,16.22800064086914 -334,-167 C-334,-167 0,-167 0,-167z"></path></g></g></g></svg>