<svg xmlns="http://www.w3.org/2000/svg" xmlns:xlink="http://www.w3.org/1999/xlink" viewBox="0 0 500 500" width="500" height="500" preserveAspectRatio="xMidYMid meet" style="width: 100%; height: 100%; transform: translate3d(0px, 0px, 0px); content-visibility: visible;"><defs><clipPath id="__lottie_element_1304"><rect width="500" height="500" x="0" y="0"></rect></clipPath></defs><g clip-path="url(#__lottie_element_1304)"><g style="display: block;" transform="matrix(0.41897913813591003,-0.09672895818948746,0.09672895818948746,0.41897913813591003,60.67451858520508,186.6287078857422)" opacity="1"><g opacity="1" transform="matrix(1,0,0,1,191.8780059814453,256.9129943847656)"><path fill="rgb(68,174,105)" fill-opacity="1" d=" M92.28500366210938,27.249000549316406 C92.28500366210938,27.249000549316406 -7.059999942779541,256.6629943847656 -7.059999942779541,256.6629943847656 C-132.91299438476562,202.1649932861328 -191.62899780273438,53.757999420166016 -137.1300048828125,-72.09500122070312 C-82.63200378417969,-197.947998046875 65.7750015258789,-256.6629943847656 191.6280059814453,-202.1649932861328 C191.6280059814453,-202.1649932861328 92.28500366210938,27.249000549316406 92.28500366210938,27.249000549316406z"></path></g></g><g style="display: block;" transform="matrix(0.41897913813591003,-0.09672895818948746,0.09672895818948746,0.41897913813591003,137.2442169189453,119.4312744140625)" opacity="1"><g opacity="1" transform="matrix(1,0,0,1,192.843994140625,355.2850036621094)"><path fill="rgb(37,56,43)" fill-opacity="1" d=" M192.593994140625,-338.47698974609375 C192.593994140625,-338.47698974609375 -81.52200317382812,292.114013671875 -81.52200317382812,292.114013671875 C-100.30799865722656,334.66400146484375 -149.13600158691406,355.0350036621094 -192.59300231933594,338.4540100097656 C-192.59300231933594,338.4540100097656 81.91000366210938,-291.9670104980469 81.91000366210938,-291.9670104980469 C100.4530029296875,-334.552001953125 149.197998046875,-355.0350036621094 192.593994140625,-338.47698974609375z"></path></g></g><g style="display: block;" transform="matrix(0.41897913813591003,-0.09672895818948746,0.09672895818948746,0.41897913813591003,231.51136779785156,145.63096618652344)" opacity="1"><g opacity="1" transform="matrix(1,0,0,1,191.8780059814453,256.9129943847656)"><path fill="rgb(68,174,105)" fill-opacity="1" d=" M-92.28399658203125,-27.249000549316406 C-92.28399658203125,-27.249000549316406 7.060999870300293,-256.6629943847656 7.060999870300293,-256.6629943847656 C132.91299438476562,-202.1649932861328 191.62899780273438,-53.757999420166016 137.1300048828125,72.09500122070312 C82.63200378417969,197.94700622558594 -65.7750015258789,256.6629943847656 -191.6280059814453,202.1649932861328 C-191.6280059814453,202.1649932861328 -92.28399658203125,-27.249000549316406 -92.28399658203125,-27.249000549316406z"></path></g></g></g></svg>