<svg width="136" height="40" viewBox="0 0 136 40" class="h-16" fill="none" xmlns="http://www.w3.org/2000/svg">
    <path
        d="M130.664 40H5.66406C2.91406 40 0.664062 37.75 0.664062 35V5C0.664062 2.25 2.91406 0 5.66406 0H130.664C133.414 0 135.664 2.25 135.664 5V35C135.664 37.75 133.414 40 130.664 40Z"
        fill="black"></path>
    <path
        d="M48.084 10.24C48.084 11.08 47.834 11.75 47.334 12.24C46.774 12.83 46.034 13.13 45.134 13.13C44.264 13.13 43.534 12.83 42.924 12.23C42.314 11.63 42.014 10.88 42.014 10C42.014 9.11 42.314 8.37 42.924 7.77C43.534 7.17 44.264 6.87 45.134 6.87C45.564 6.87 45.974 6.95 46.364 7.12C46.754 7.29 47.064 7.51 47.304 7.79L46.774 8.31999C46.374 7.84999 45.834 7.61 45.134 7.61C44.504 7.61 43.954 7.82999 43.494 8.27999C43.034 8.72 42.804 9.3 42.804 10.01C42.804 10.72 43.034 11.3 43.494 11.74C43.954 12.18 44.504 12.41 45.134 12.41C45.804 12.41 46.364 12.19 46.814 11.74C47.104 11.45 47.274 11.04 47.314 10.52H45.134V9.79H48.044C48.064 9.95 48.084 10.1 48.084 10.24Z"
        fill="white" stroke="white" stroke-width="0.2" stroke-miterlimit="10"></path>
    <path d="M52.694 7.74H49.964V9.64H52.424V10.36H49.964V12.26H52.694V13H49.194V7H52.694V7.74Z" fill="white"
        stroke="white" stroke-width="0.2" stroke-miterlimit="10"></path>
    <path d="M55.944 13H55.174V7.74H53.494V7H57.614V7.74H55.934V13H55.944Z" fill="white" stroke="white"
        stroke-width="0.2" stroke-miterlimit="10"></path>
    <path d="M60.6041 13V7H61.3741V13H60.6041Z" fill="white" stroke="white" stroke-width="0.2" stroke-miterlimit="10">
    </path>
    <path d="M64.7941 13H64.0241V7.74H62.3441V7H66.4641V7.74H64.7841V13H64.7941Z" fill="white" stroke="white"
        stroke-width="0.2" stroke-miterlimit="10"></path>
    <path
        d="M74.274 12.22C73.684 12.83 72.954 13.13 72.074 13.13C71.194 13.13 70.464 12.83 69.874 12.22C69.284 11.61 68.994 10.87 68.994 10C68.994 9.13 69.284 8.38 69.874 7.78C70.464 7.17 71.194 6.87 72.074 6.87C72.944 6.87 73.674 7.17 74.274 7.78C74.864 8.39 75.164 9.13 75.164 10C75.154 10.88 74.864 11.62 74.274 12.22ZM70.444 11.72C70.884 12.17 71.434 12.39 72.074 12.39C72.714 12.39 73.264 12.17 73.704 11.72C74.144 11.27 74.374 10.7 74.374 10C74.374 9.3 74.154 8.73 73.704 8.27999C73.264 7.82999 72.714 7.6 72.074 7.6C71.434 7.6 70.884 7.82 70.444 8.27C70.004 8.73 69.774 9.3 69.774 10C69.774 10.7 70.004 11.27 70.444 11.72Z"
        fill="white" stroke="white" stroke-width="0.2" stroke-miterlimit="10"></path>
    <path
        d="M76.244 13V7H77.184L80.104 11.67H80.134L80.104 10.51V7H80.874V13H80.074L77.024 8.11H76.994L77.024 9.27V13H76.244Z"
        fill="white" stroke="white" stroke-width="0.2" stroke-miterlimit="10"></path>
    <path
        d="M68.804 21.75C66.454 21.75 64.534 23.54 64.534 26C64.534 28.45 66.454 30.25 68.804 30.25C71.154 30.25 73.074 28.45 73.074 26C73.074 23.54 71.154 21.75 68.804 21.75ZM68.804 28.58C67.514 28.58 66.404 27.5201 66.404 26C66.404 24.47 67.514 23.42 68.804 23.42C70.094 23.42 71.204 24.47 71.204 26C71.204 27.5201 70.084 28.58 68.804 28.58ZM59.484 21.75C57.134 21.75 55.214 23.54 55.214 26C55.214 28.45 57.134 30.25 59.484 30.25C61.834 30.25 63.754 28.45 63.754 26C63.754 23.54 61.834 21.75 59.484 21.75ZM59.484 28.58C58.194 28.58 57.084 27.5201 57.084 26C57.084 24.47 58.194 23.42 59.484 23.42C60.774 23.42 61.884 24.47 61.884 26C61.884 27.5201 60.774 28.58 59.484 28.58ZM48.404 23.06V24.8601H52.724C52.594 25.8701 52.254 26.62 51.744 27.13C51.114 27.76 50.134 28.4501 48.414 28.4501C45.754 28.4501 43.674 26.31 43.674 23.65C43.674 20.99 45.754 18.85 48.414 18.85C49.844 18.85 50.894 19.41 51.664 20.14L52.934 18.8701C51.854 17.8401 50.424 17.05 48.404 17.05C44.764 17.05 41.704 20.01 41.704 23.66C41.704 27.3 44.764 30.2701 48.404 30.2701C50.374 30.2701 51.854 29.63 53.014 28.42C54.204 27.23 54.574 25.5501 54.574 24.2001C54.574 23.7801 54.544 23.39 54.474 23.07H48.404V23.06ZM93.714 24.46C93.364 23.51 92.284 21.75 90.074 21.75C87.884 21.75 86.064 23.47 86.064 26C86.064 28.38 87.864 30.25 90.284 30.25C92.234 30.25 93.364 29.0601 93.824 28.3701L92.374 27.4C91.894 28.11 91.234 28.58 90.284 28.58C89.334 28.58 88.654 28.1401 88.224 27.2901L93.914 24.9401L93.714 24.46ZM87.914 25.88C87.864 24.24 89.184 23.4 90.134 23.4C90.874 23.4 91.504 23.77 91.714 24.3L87.914 25.88ZM83.294 30H85.164V17.5H83.294V30ZM80.234 22.7001H80.164C79.744 22.2001 78.944 21.75 77.924 21.75C75.794 21.75 73.844 23.62 73.844 26.0201C73.844 28.4001 75.794 30.26 77.924 30.26C78.934 30.26 79.744 29.8101 80.164 29.2901H80.224V29.9C80.224 31.53 79.354 32.4001 77.954 32.4001C76.814 32.4001 76.104 31.58 75.814 30.89L74.184 31.57C74.654 32.7 75.894 34.0801 77.954 34.0801C80.144 34.0801 81.994 32.79 81.994 29.65V22.01H80.224V22.7001H80.234ZM78.084 28.58C76.794 28.58 75.714 27.5 75.714 26.0201C75.714 24.5201 76.794 23.43 78.084 23.43C79.354 23.43 80.354 24.5301 80.354 26.0201C80.364 27.5 79.364 28.58 78.084 28.58ZM102.474 17.5H98.004V30H99.874V25.26H102.484C104.554 25.26 106.584 23.76 106.584 21.38C106.584 19 104.534 17.5 102.474 17.5ZM102.514 23.5201H99.864V19.23H102.514C103.914 19.23 104.704 20.3901 104.704 21.3701C104.704 22.3501 103.914 23.5201 102.514 23.5201ZM114.054 21.73C112.704 21.73 111.304 22.33 110.724 23.64L112.384 24.33C112.734 23.64 113.394 23.41 114.084 23.41C115.054 23.41 116.034 23.9901 116.044 25.0201V25.15C115.704 24.96 114.984 24.67 114.094 24.67C112.304 24.67 110.494 25.65 110.494 27.48C110.494 29.15 111.954 30.23 113.594 30.23C114.844 30.23 115.544 29.67 115.974 29.01H116.034V29.98H117.834V25.1901C117.844 22.97 116.184 21.73 114.054 21.73ZM113.824 28.58C113.214 28.58 112.364 28.2701 112.364 27.5201C112.364 26.5601 113.424 26.1901 114.344 26.1901C115.164 26.1901 115.554 26.3701 116.044 26.6101C115.904 27.76 114.904 28.58 113.824 28.58ZM124.404 22L122.264 27.42H122.204L119.984 22H117.974L121.304 29.58L119.404 33.7901H121.354L126.484 22H124.404ZM107.604 30H109.474V17.5H107.604V30Z"
        fill="white"></path>
    <path
        d="M11.104 7.53997C10.814 7.84997 10.644 8.32997 10.644 8.93997V31.06C10.644 31.68 10.814 32.16 11.104 32.46L11.174 32.53L23.564 20.15V20V19.85L11.174 7.46997L11.104 7.53997Z"
        fill="url(#paint0_linear_115_7098)"></path>
    <path
        d="M27.694 24.28L23.564 20.15V20V19.85L27.694 15.72L27.784 15.77L32.674 18.55C34.074 19.34 34.074 20.64 32.674 21.44L27.784 24.22L27.694 24.28Z"
        fill="url(#paint1_linear_115_7098)"></path>
    <path d="M27.784 24.23L23.564 20L11.104 32.46C11.564 32.95 12.324 33.01 13.184 32.52L27.784 24.23Z"
        fill="url(#paint2_linear_115_7098)"></path>
    <path d="M27.7841 15.78L13.1741 7.47999C12.3141 6.98999 11.5541 7.04999 11.0941 7.53999L23.5641 20L27.7841 15.78Z"
        fill="url(#paint3_linear_115_7098)"></path>
    <path opacity="0.2"
        d="M27.6941 24.13L13.1741 32.38C12.3641 32.84 11.6341 32.81 11.1741 32.39L11.1041 32.46L11.1741 32.53C11.6441 32.95 12.3641 32.98 13.1741 32.52L27.7841 24.22L27.6941 24.13Z"
        fill="black"></path>
    <path opacity="0.12"
        d="M11.104 32.32C10.814 32.01 10.644 31.53 10.644 30.92V31.07C10.644 31.69 10.814 32.17 11.104 32.47L11.174 32.4L11.104 32.32Z"
        fill="black"></path>
    <path opacity="0.12"
        d="M32.674 21.3L27.684 24.13L27.774 24.22L32.664 21.44C33.364 21.04 33.714 20.52 33.714 20C33.664 20.47 33.314 20.94 32.674 21.3Z"
        fill="black"></path>
    <path opacity="0.25"
        d="M13.174 7.61994L32.674 18.6999C33.304 19.0599 33.664 19.5199 33.724 19.9999C33.724 19.4799 33.374 18.9499 32.674 18.5599L13.174 7.47994C11.774 6.68994 10.634 7.34994 10.634 8.94994V9.09994C10.634 7.48994 11.784 6.82994 13.174 7.61994Z"
        fill="white"></path>
    <defs>
        <linearGradient id="paint0_linear_115_7098" x1="22.4636" y1="8.70977" x2="5.68124" y2="25.4922"
            gradientUnits="userSpaceOnUse">
            <stop stop-color="#00A0FF"></stop>
            <stop offset="0.00657445" stop-color="#00A1FF"></stop>
            <stop offset="0.2601" stop-color="#00BEFF"></stop>
            <stop offset="0.5122" stop-color="#00D2FF"></stop>
            <stop offset="0.7604" stop-color="#00DFFF"></stop>
            <stop offset="1" stop-color="#00E3FF"></stop>
        </linearGradient>
        <linearGradient id="paint1_linear_115_7098" x1="34.4983" y1="20.0015" x2="10.3014" y2="20.0015"
            gradientUnits="userSpaceOnUse">
            <stop stop-color="#FFE000"></stop>
            <stop offset="0.4087" stop-color="#FFBD00"></stop>
            <stop offset="0.7754" stop-color="#FFA500"></stop>
            <stop offset="1" stop-color="#FF9C00"></stop>
        </linearGradient>
        <linearGradient id="paint2_linear_115_7098" x1="25.4909" y1="22.2962" x2="2.7326" y2="45.0545"
            gradientUnits="userSpaceOnUse">
            <stop stop-color="#FF3A44"></stop>
            <stop offset="1" stop-color="#C31162"></stop>
        </linearGradient>
        <linearGradient id="paint3_linear_115_7098" x1="7.96125" y1="0.176287" x2="18.1239" y2="10.3388"
            gradientUnits="userSpaceOnUse">
            <stop stop-color="#32A071"></stop>
            <stop offset="0.0685" stop-color="#2DA771"></stop>
            <stop offset="0.4762" stop-color="#15CF74"></stop>
            <stop offset="0.8009" stop-color="#06E775"></stop>
            <stop offset="1" stop-color="#00F076"></stop>
        </linearGradient>
    </defs>
</svg>