<svg xmlns:xlink="http://www.w3.org/1999/xlink" xmlns="http://www.w3.org/2000/svg" version="1.1" viewBox="0 0 290 160" height="160px" width="290px">
    <title>Fresco/Website/Data Driven</title>
    <g fill-rule="evenodd" fill="none" stroke-width="1" stroke="none" id="Fresco/Website/Data-Driven">
        <g transform="translate(80.000000, 12.913791)" id="Group-2">
            <g fill="#FCF0D5" transform="translate(0.000000, 54.041067)" id="Group">
                <ellipse ry="21.5175114" rx="21.6666667" cy="21.5175114" cx="43.3333333" id="Oval"></ellipse>
                <ellipse ry="21.5175114" rx="21.6666667" cy="58.527631" cx="21.6666667" id="Oval-Copy-2"></ellipse>
                <ellipse ry="21.5175114" rx="21.6666667" cy="58.527631" cx="65" id="Oval-Copy-3"></ellipse>
                <ellipse ry="21.5175114" rx="21.6666667" cy="58.527631" cx="108.333333" id="Oval-Copy-4"></ellipse>
                <ellipse ry="21.5175114" rx="21.6666667" cy="21.5175114" cx="86.6666667" id="Oval-Copy"></ellipse>
            </g>
            <path transform="translate(68.466667, 34.460131) rotate(35.000000) translate(-68.466667, -34.460131)" fill="#F6B7D1" id="Fill-54" d="M81.4666667,7.56324202 C86.2528333,7.56324202 90.1333333,11.4170283 90.1333333,16.1702466 L90.1333333,16.1702466 L90.1333333,41.9912603 C90.1333333,46.7444785 86.2528333,50.5982648 81.4666667,50.5982648 L81.4666667,50.5982648 L73.8833333,50.5982648 L68.4666667,61.3570205 L63.05,50.5982648 L55.4666667,50.5982648 C50.6805,50.5982648 46.8,46.7444785 46.8,41.9912603 L46.8,41.9912603 L46.8,16.1702466 C46.8,11.4170283 50.6805,7.56324202 55.4666667,7.56324202 L55.4666667,7.56324202 Z M73.6802083,19.3978733 C71.0737083,19.3978733 69.727125,20.507101 68.4672083,21.5496244 C67.2062083,20.507101 65.859625,19.3978733 63.253125,19.3978733 C60.4602917,19.3978733 56.5494583,21.1009843 56.5494583,26.5707357 C56.5494583,34.0114912 68.4672083,40.9153847 68.4672083,40.9153847 C68.4672083,40.9153847 80.3827917,34.0114912 80.3827917,26.5707357 C80.3827917,21.1009843 76.4730417,19.3978733 73.6802083,19.3978733 Z"></path>
        </g>
    </g>
</svg>