<svg xmlns:xlink="http://www.w3.org/1999/xlink" xmlns="http://www.w3.org/2000/svg" version="1.1" viewBox="0 0 290 160" height="160px" width="290px">
    <title>Fresco/Website/Data Driven Copy</title>
    <g fill-rule="evenodd" fill="none" stroke-width="1" stroke="none" id="Fresco/Website/Data-Driven-Copy">
        <g transform="translate(74.000000, 15.000000)" id="Group">
            <path fill="#F6B7D1" id="Fill-4" d="M18,22.2774636 L24.624756,29 C30.6514492,22.885146 37.6658049,18.0846925 45.4741944,14.7341202 C53.5542887,11.2662896 62.1418775,9.50741742 70.9996096,9.50741742 C79.8581225,9.50741742 88.4457113,11.2662896 96.5250249,14.7341202 C104.334195,18.0846925 111.348551,22.885146 117.374463,29 L124,22.2774636 C110.435841,8.51310002 91.6975804,0 70.9996096,0 C50.3024196,0 31.5641587,8.51310002 18,22.2774636"></path>
            <path fill="#F6B7D1" id="Fill-6" d="M31,36.4009062 L37.6664702,43 C46.5705489,34.1866906 58.4083459,29.3328374 71.0003928,29.3328374 C83.5916541,29.3328374 95.4294511,34.1866906 104.33353,43 L111,36.4009062 C100.763413,26.267778 86.6212251,20 71.0003928,20 C55.3787749,20 41.236587,26.267778 31,36.4009062"></path>
            <path fill="#F6B7D1" id="Fill-8" d="M44,49.2252484 L50.6248048,56 C55.9340179,50.5722143 62.9921481,47.5812633 70.5,47.5812633 C78.0078519,47.5812633 85.0659821,50.5722143 90.3751952,56 L97,49.2252484 C90.2182611,42.2900106 80.8490616,38 70.5,38 C60.1509384,38 50.7817389,42.2900106 44,49.2252484"></path>
            <path fill="#F6B7D1" id="Fill-10" d="M84,62.564625 C80.5451519,59.1264167 75.7721635,57 70.4996023,57 C65.2278365,57 60.4548481,59.1264167 57,62.564625 L70.4996023,76 L84,62.564625 Z"></path>
            <path fill="#FEEDB4" id="Fill-12" d="M67,112 L25.9858205,71 C15.7788346,81.7314649 9.39594717,96.1183081 9,112 L67,112 Z"></path>
            <path fill="#FEEDB4" id="Fill-14" d="M75,112 L133,112 C132.604053,96.1183081 126.221165,81.7314649 116.01418,71 L75,112 Z"></path>
            <path fill="#FEEDB4" id="Fill-16" d="M130.801945,130 C132.108728,125.206316 132.872452,120.183684 133,115 L75,115 L89.8675814,130 L130.801945,130 Z"></path>
            <polygon points="85 130 72 117 72 130" fill="#FEEDB4" id="Fill-18"></polygon>
            <polygon points="69 130 69 117 56 130" fill="#FEEDB4" id="Fill-20"></polygon>
            <path fill="#FEEDB4" id="Fill-22" d="M52.1324186,130 L67,115 L9,115 C9.1275482,120.183684 9.89127238,125.206316 11.1980545,130 L52.1324186,130 Z"></path>
            <path fill="#FCF0D5" id="Combined-Shape" d="M7.8355577e-05,111.756781 C0.398908246,93.2415003 7.75963121,76.4640844 19.5403923,64 L19.5403923,64 L23.9855042,68.5005228 L25.6482096,70.1828648 C15.4267245,81.0645483 9.03526001,95.6527779 8.63878079,111.756781 L8.63878079,111.756781 Z M132.361376,111.756702 C131.964897,95.6526986 125.573432,81.064469 115.351947,70.1827855 L115.351947,70.1827855 L117.014652,68.5004435 L117.014652,68.5004435 L121.459686,64 C133.240447,76.4640844 140.60117,93.2415003 141,111.756781 L141,111.756781 Z M1.93224854,130 C0.786689999,125.148097 0.11126492,120.109796 0,114.929515 L0,114.929515 L8.63885914,114.929515 C8.76657873,120.137557 9.53132917,125.18379 10.8398673,130 L10.8398673,130 Z M130.160054,130 C131.468592,125.18379 132.232559,120.137557 132.361063,114.929515 L132.361063,114.929515 L140.999765,114.929515 C140.8885,120.109796 140.213075,125.148097 139.067516,130 L139.067516,130 Z"></path>
            <path fill="#FC4545" id="Fill-40" d="M121,91 C119.34325,91 118,92.34325 118,94 C118,95.65675 119.34325,97 121,97 C122.65675,97 124,95.65675 124,94 C124,92.34325 122.65675,91 121,91 M121,92.5 C121.82725,92.5 122.5,93.172 122.5,94 C122.5,94.828 121.82725,95.5 121,95.5 C120.17275,95.5 119.5,94.828 119.5,94 C119.5,93.172 120.17275,92.5 121,92.5"></path>
            <path fill="#FC4545" id="Fill-42" d="M41,122 C39.34325,122 38,123.34325 38,125 C38,126.65675 39.34325,128 41,128 C42.65675,128 44,126.65675 44,125 C44,123.34325 42.65675,122 41,122 M41,123.5 C41.82725,123.5 42.5,124.172 42.5,125 C42.5,125.828 41.82725,126.5 41,126.5 C40.17275,126.5 39.5,125.828 39.5,125 C39.5,124.172 40.17275,123.5 41,123.5"></path>
            <path fill="#FC4545" id="Fill-44" d="M17,102 C15.34325,102 14,103.34325 14,105 C14,106.65675 15.34325,108 17,108 C18.65675,108 20,106.65675 20,105 C20,103.34325 18.65675,102 17,102 M17,103.5 C17.82725,103.5 18.5,104.172 18.5,105 C18.5,105.828 17.82725,106.5 17,106.5 C16.17275,106.5 15.5,105.828 15.5,105 C15.5,104.172 16.17275,103.5 17,103.5"></path>
            <path fill="#F6B7D1" id="Fill-46" d="M36.2184939,104 C42.3713141,104 47.5265267,99.7902985 49,94.099348 L32.900652,78 C27.2097015,79.4734733 23,84.6294635 23,90.7815061 C23,98.0820025 28.9179975,104 36.2184939,104"></path>
            <path fill="#44AF69" id="Fill-48" d="M59,112 C58.3106746,109.125833 55.889894,107 53,107 C50.1108814,107 47.6901008,109.125833 47,112 L59,112 Z"></path>
            <path fill="#44AF69" id="Fill-50" d="M53,120 C55.889894,120 58.3106746,117.874167 59,115 L47,115 C47.6893254,117.874167 50.110106,120 53,120"></path>
            <path fill="#44AF69" id="Fill-52" d="M83,115 C84.0998411,116.79175 86.1477388,118 88.5,118 C90.8514666,118 92.9001589,116.79175 94,115 L83,115 Z"></path>
            <path fill="#44AF69" id="Fill-54" d="M88.5,106 C84.910375,106 82,108.6865 82,112 L95,112 C95,108.6865 92.089625,106 88.5,106"></path>
            <path fill="#F6B7D1" id="Fill-56" d="M85,130 L79.5371979,125 C77.5762123,126.258494 75.999842,127.984675 75,130 L85,130 Z"></path>
            <path fill="#F6B7D1" id="Fill-58" d="M99,130 C96.892079,125.2856 92.2165854,122 86.7750058,122 C85.0904065,122 83.4855749,122.328 82,122.9016 L89.0085017,130 L99,130 Z"></path>
            <path fill="#F6B7D1" id="Fill-60" d="M102.039706,115 C102.024618,115.258222 102,115.514889 102,115.777778 C102,123.080333 108.044029,129 115.5,129 C122.955176,129 129,123.080333 129,115.777778 C129,115.514889 128.974588,115.258222 128.9595,115 L102.039706,115 Z"></path>
            <path fill="#F6B7D1" id="Fill-62" d="M103,112 L128,112 C126.356923,106.789 121.383077,103 115.5,103 C109.616923,103 104.643077,106.789 103,112"></path>
            <path fill="#F6B7D1" id="Fill-64" d="M97.7493133,98 C105.06759,98 111,92.0673694 111,84.7488215 C111,81.8514903 110.059201,79.1794291 108.48237,77 L90,95.4822761 C92.1809071,97.0591663 94.8520897,98 97.7493133,98"></path>
            <path fill="#44AF69" id="Fill-66" d="M20.2108125,130 L28.79,130 C30.1428125,128.848143 31,127.165929 31,125.285714 C31,121.814429 28.0904375,119 24.5,119 C20.910375,119 18,121.814429 18,125.285714 C18,127.165929 18.858,128.848143 20.2108125,130"></path>
        </g>
    </g>
</svg>