<svg xmlns:xlink="http://www.w3.org/1999/xlink" xmlns="http://www.w3.org/2000/svg" version="1.1" viewBox="0 0 290 160" height="160px" width="290px">
    <title>Fresco/Website/Cross Brand</title>
    <g fill-rule="evenodd" fill="none" stroke-width="1" stroke="none" id="Fresco/Website/Cross-Brand">
        <g transform="translate(82.000000, 20.000000)" id="Illustration">
            <path fill="#FCF0D5" id="Fill-1" d="M0,120 L126,120 L126,4 C126,1.790861 124.209139,-1.29399067e-15 122,0 L4,0 C1.790861,4.05812251e-16 -2.705415e-16,1.790861 0,4 L0,120 L0,120 Z"></path>
            <path fill="#3F1026" id="Fill-4" d="M113.502024,42.5806452 L12.4979757,42.5806452 C10.9464413,42.5806452 9.69230769,41.2829032 9.69230769,39.6774194 C9.69230769,38.0719355 10.9464413,36.7741935 12.4979757,36.7741935 L113.502024,36.7741935 C115.053559,36.7741935 116.307692,38.0719355 116.307692,39.6774194 C116.307692,41.2829032 115.053559,42.5806452 113.502024,42.5806452"></path>
            <rect height="57.0967742" width="100.8" y="50.3225806" x="12.6" fill="#3F1026" id="Rectangle"></rect>
            <path fill="#3F1026" id="Fill-8" d="M49.8181818,22.8739003 L76.1818182,22.8739003 C78.3909572,22.8739003 80.1818182,21.0830393 80.1818182,18.8739003 L80.1818182,9.71847507 C80.1818182,7.50933607 78.3909572,5.71847507 76.1818182,5.71847507 L49.8181818,5.71847507 C47.6090428,5.71847507 45.8181818,7.50933607 45.8181818,9.71847507 L45.8181818,18.8739003 C45.8181818,21.0830393 47.6090428,22.8739003 49.8181818,22.8739003 Z"></path>
            <path fill="#3F1026" id="Fill-9" d="M97.3636364,14.2961877 C97.3636364,17.4527859 94.7978182,20.0146628 91.6363636,20.0146628 C88.4749091,20.0146628 85.9090909,17.4527859 85.9090909,14.2961877 C85.9090909,11.1395894 88.4749091,8.57771261 91.6363636,8.57771261 C94.7978182,8.57771261 97.3636364,11.1395894 97.3636364,14.2961877"></path>
            <path fill="#3F1026" id="Fill-10" d="M114.545455,14.2961877 C114.545455,17.4527859 111.979636,20.0146628 108.818182,20.0146628 C105.656727,20.0146628 103.090909,17.4527859 103.090909,14.2961877 C103.090909,11.1395894 105.656727,8.57771261 108.818182,8.57771261 C111.979636,8.57771261 114.545455,11.1395894 114.545455,14.2961877"></path>
            <path fill="#3F1026" id="Fill-11" d="M22.9090909,14.2961877 C22.9090909,17.4527859 20.3432727,20.0146628 17.1818182,20.0146628 C14.0203636,20.0146628 11.4545455,17.4527859 11.4545455,14.2961877 C11.4545455,11.1395894 14.0203636,8.57771261 17.1818182,8.57771261 C20.3432727,8.57771261 22.9090909,11.1395894 22.9090909,14.2961877"></path>
            <path fill="#3F1026" id="Fill-12" d="M40.0909091,14.2961877 C40.0909091,17.4527859 37.5250909,20.0146628 34.3636364,20.0146628 C31.2021818,20.0146628 28.6363636,17.4527859 28.6363636,14.2961877 C28.6363636,11.1395894 31.2021818,8.57771261 34.3636364,8.57771261 C37.5250909,8.57771261 40.0909091,11.1395894 40.0909091,14.2961877"></path>
        </g>
    </g>
</svg>