<svg xmlns:xlink="http://www.w3.org/1999/xlink" xmlns="http://www.w3.org/2000/svg" version="1.1" viewBox="0 0 290 160" height="160px" width="290px">
    <title>Fresco/Website/Extra Hand</title>
    <g fill-rule="evenodd" fill="none" stroke-width="1" stroke="none" id="Fresco/Website/Extra-Hand">
        <g fill="#FCF0D5" transform="translate(80.000000, 15.000000)" id="Illustration">
            <path id="Circles" d="M108.333333,0 C120.299503,0 130,9.69544738 130,21.6553878 C130,33.6153283 120.299503,43.3107756 108.333333,43.3107756 C97.2792824,43.3107756 88.1586673,35.0370624 86.8324599,24.3475568 C85.5079994,35.0370624 76.3873842,43.3107756 65.3333333,43.3107756 C53.3671638,43.3107756 43.6666667,33.6153283 43.6666667,21.6553878 C43.6666667,9.69544738 53.3671638,0 65.3333333,0 C76.3873842,0 85.5079994,8.27371327 86.8342068,18.9632188 C88.1586673,8.27371327 97.2792824,0 108.333333,0 Z M108.333333,130 C120.299503,130 130,120.304553 130,108.344612 C130,96.3846717 120.299503,86.6892244 108.333333,86.6892244 C96.3671638,86.6892244 86.6666667,96.3846717 86.6666667,108.344612 C86.6666667,120.304553 96.3671638,130 108.333333,130 Z M108.333333,86.6215513 C120.299503,86.6215513 130,76.9261039 130,64.9661635 C130,53.006223 120.299503,43.3107756 108.333333,43.3107756 C96.3671638,43.3107756 86.6666667,53.006223 86.6666667,64.9661635 C86.6666667,76.9261039 96.3671638,86.6215513 108.333333,86.6215513 Z M21.6666667,86.6215513 C33.6328362,86.6215513 43.3333333,96.3169987 43.3333333,108.276939 C43.3333333,120.23688 33.6328362,129.932327 21.6666667,129.932327 C9.70049709,129.932327 0,120.23688 0,108.276939 C0,96.3169987 9.70049709,86.6215513 21.6666667,86.6215513 Z M65,86.6215513 C76.9661696,86.6215513 86.6666667,96.3169987 86.6666667,108.276939 C86.6666667,120.23688 76.9661696,129.932327 65,129.932327 C53.0338304,129.932327 43.3333333,120.23688 43.3333333,108.276939 C43.3333333,96.3169987 53.0338304,86.6215513 65,86.6215513 Z M65,43.3107756 C76.9661696,43.3107756 86.6666667,53.006223 86.6666667,64.9661635 C86.6666667,76.9261039 76.9661696,86.6215513 65,86.6215513 C53.0338304,86.6215513 43.3333333,76.9261039 43.3333333,64.9661635 C43.3333333,53.006223 53.0338304,43.3107756 65,43.3107756 Z M21.6666667,43.3107756 C33.6328362,43.3107756 43.3333333,53.006223 43.3333333,64.9661635 C43.3333333,76.9261039 33.6328362,86.6215513 21.6666667,86.6215513 C9.70049709,86.6215513 0,76.9261039 0,64.9661635 C0,53.006223 9.70049709,43.3107756 21.6666667,43.3107756 Z"></path>
        </g>
        <ellipse ry="21.6553878" rx="21.6666667" cy="36.6553878" cx="101.333333" fill="#F6B7D1" id="Oval-Copy-4"></ellipse>
    </g>
</svg>