<svg xmlns="http://www.w3.org/2000/svg" xmlns:xlink="http://www.w3.org/1999/xlink" viewBox="0 0 1000 1000" width="1000" height="1000" preserveAspectRatio="xMidYMid meet" style="width: 100%; height: 100%; transform: translate3d(0px, 0px, 0px); content-visibility: visible;"><defs><clipPath id="__lottie_element_1386"><rect width="1000" height="1000" x="0" y="0"></rect></clipPath></defs><g clip-path="url(#__lottie_element_1386)"><g style="display: block;" transform="matrix(1,0,0,1,165.27099609375,178.90298461914062)" opacity="1"><g opacity="1" transform="matrix(1,0,0,1,335.0329895019531,335.0320129394531)"><path fill="rgb(248,200,199)" fill-opacity="1" d=" M333.99798583984375,-1.4220000505447388 C334.7829895019531,183.03900146484375 185.88499450683594,333.2120056152344 1.4229999780654907,333.99700927734375 C-183.03900146484375,334.7820129394531 -333.21099853515625,185.88400268554688 -333.9960021972656,1.4229999780654907 C-334.7820129394531,-183.03900146484375 -185.88299560546875,-333.2120056152344 -1.4210000038146973,-333.99700927734375 C183.0399932861328,-334.7820129394531 333.2120056152344,-185.88299560546875 333.99798583984375,-1.4220000505447388z"></path></g></g><g style="display: block;" transform="matrix(-0.9563047289848328,0.2923716902732849,-0.2923716902732849,-0.9563047289848328,437.2056884765625,896.4026489257812)" opacity="1"><g opacity="1" transform="matrix(1,0,0,1,41.34600067138672,41.34600067138672)"><path fill="rgb(255,69,69)" fill-opacity="1" d=" M0.17499999701976776,-41 C-22.468000411987305,-41.09600067138672 -40.902000427246094,-22.81800079345703 -40.999000549316406,-0.17499999701976776 C-41.09600067138672,22.4689998626709 -22.81800079345703,40.90299987792969 -0.17499999701976776,41 C22.4689998626709,41.09600067138672 40.90299987792969,22.81800079345703 40.999000549316406,0.17399999499320984 C41.09600067138672,-22.4689998626709 22.819000244140625,-40.90299987792969 0.17499999701976776,-41z"></path></g></g><g style="display: block;" transform="matrix(1,0,0,1,291.83599853515625,195.84397888183594)" opacity="1"><g opacity="1" transform="matrix(1,0,0,1,250.8350067138672,250.8350067138672)"><path fill="rgb(255,69,69)" fill-opacity="1" d=" M249.9980010986328,-1.0640000104904175 C250.58599853515625,137.00599670410156 139.13499450683594,249.41000366210938 1.065000057220459,249.9969940185547 C-137.0050048828125,250.5850067138672 -249.40899658203125,139.13499450683594 -249.9969940185547,1.065000057220459 C-250.5850067138672,-137.0050048828125 -139.13400268554688,-249.40899658203125 -1.0640000104904175,-249.9969940185547 C137.00599670410156,-250.5850067138672 249.41000366210938,-139.13400268554688 249.9980010986328,-1.0640000104904175z"></path></g></g><g style="display: block;" transform="matrix(1,0,0,1,345.9549865722656,287.44500732421875)" opacity="1"><g opacity="1" transform="matrix(1,0,0,1,167.64100646972656,167.64199829101562)"><path fill="rgb(255,255,255)" fill-opacity="1" d=" M166.99899291992188,-0.7120000123977661 C167.39199829101562,91.51799774169922 92.94200134277344,166.6060028076172 0.7120000123977661,166.99899291992188 C-91.51899719238281,167.39199829101562 -166.60499572753906,92.94200134277344 -166.9980010986328,0.7110000252723694 C-167.39100646972656,-91.5199966430664 -92.94100189208984,-166.6060028076172 -0.7099999785423279,-166.9980010986328 C91.5199966430664,-167.39100646972656 166.6060028076172,-92.94200134277344 166.99899291992188,-0.7120000123977661z"></path></g><g opacity="1" transform="matrix(1,0,0,1,126.89199829101562,334.39801025390625)"><path fill="rgb(255,255,255)" fill-opacity="1" d=" M-41.75,-41.75 C-41.75,-41.75 41.75,-41.75 41.75,-41.75 C41.75,-19.613000869750977 32.946998596191406,1.6399999856948853 17.292999267578125,17.292999267578125 C1.6399999856948853,32.94599914550781 -19.613000869750977,41.75 -41.75,41.75 C-41.75,41.75 -41.75,-41.75 -41.75,-41.75z"></path></g></g></g></svg>